{"title":"The Expendables 3 [2014] - DVDSCREENER - 1080p - x264 - AC3 - eX","uid":10714266,"size":3835247722,"categoryP":"video","categoryS":"hd___movies","magnet":"?xt=urn:btih:38b91afb8eb931a13f1b9de75b57eb9a71a80c04&amp;dn=The+Expendables+3+%5B2014%5D+-+DVDSCREENER+-+1080p+-+x264+-+AC3+-+eX&amp;tr=udp%3A%2F%2Ftracker.openbittorrent.com%3A80&amp;tr=udp%3A%2F%2Fopen.demonii.com%3A1337&amp;tr=udp%3A%2F%2Ftracker.coppersurfer.tk%3A6969&amp;tr=udp%3A%2F%2Fexodus.desync.com%3A6969","seeders":1,"leechers":1,"uploader":"TeamMCT","files":14,"time":1407389440,"description":"[CENTER]\n[quote=&quot;Team MCT ~ MovieClub&quot;][COLOR=&quot;Brown&quot;][SIZE=&quot;4&quot;][b]Problem-* Screenshots Wont Be Clear As It Is When It's Downloaded![/b][/SIZE][/COLOR]\n[COLOR=&quot;Purple&quot;][SIZE=&quot;4&quot;][b]Reason-* Screenshots Have Been Taken From Windows Server![/b][/SIZE][/COLOR]\n[COLOR=&quot;Green&quot;][SIZE=&quot;4&quot;][b]Solution-* Please Check The Sample Link Provided Below![/b][/SIZE][/COLOR][/quote]\n\n[quote=&quot;Downloaders&quot;][COLOR=&quot;Red&quot;][SIZE=&quot;3&quot;][b]Please Don't Complain if the video is not working! It has been tested!\nTry a different Video Player...If Any problems Please comment and, We as a team will help you![/b][/SIZE][/COLOR][/quote][/CENTER]\n\n\n[CENTER][IMG]http://i.imgbox.com/ZWbSnYVO.png[/IMG][/CENTER]\n\n\n[CENTER][URL=http://imgbox.com/SGbyf49t][IMG]http://i.imgbox.com/SGbyf49t.png[/IMG][/URL]\n\n[URL=http://imgbox.com/291DUZIl][IMG]http://i.imgbox.com/291DUZIl.png[/IMG][/URL][/CENTER]\n\n\n[CENTER][B][COLOR=&quot;brown&quot;][SIZE=6]Media Info[/SIZE][/COLOR][/B][/CENTER]\n\n[CENTER][quote=&quot;Team MCT&quot;]\nGeneral\nComplete name                            : The Expendables 3 [2014].mkv\nFormat                                   : Matroska\nFormat version                           : Version 2\nFile size                                : 3.53 GiB\nDuration                                 : 2h 1mn\nOverall bit rate                         : 4 158 Kbps\nWriting application                      : Lavf51.12.1\nWriting library                          : Lavf51.12.1\n\nVideo\nID                                       : 1\nFormat                                   : AVC\nFormat/Info                              : Advanced Video Codec\nFormat profile                           : &lt;a class=&quot;__cf_email__&quot; href=&quot;/cdn-cgi/l/email-protection&quot; data-cfemail=&quot;f2b09381979e9b9c97b2bec6dcc2&quot;&gt;[email&amp;#160;protected]&lt;/a&gt;&lt;script cf-hash='f9e31' type=&quot;text/javascript&quot;&gt;\n/* &lt;![CDATA[ */!function(){try{var t=&quot;currentScript&quot;in document?document.currentScript:function(){for(var t=document.getElementsByTagName(&quot;script&quot;),e=t.length;e--;)if(t[e].getAttribute(&quot;cf-hash&quot;))return t[e]}();if(t&amp;&amp;t.previousSibling){var e,r,n,i,c=t.previousSibling,a=c.getAttribute(&quot;data-cfemail&quot;);if(a){for(e=&quot;&quot;,r=parseInt(a.substr(0,2),16),n=2;a.length-n;n+=2)i=parseInt(a.substr(n,2),16)^r,e+=String.fromCharCode(i);e=document.createTextNode(e),c.parentNode.replaceChild(e,c)}}}catch(u){}}();/* ]]&gt; */&lt;/script&gt;\nFormat settings, CABAC                   : No\nFormat settings, ReFrames                : 1 frame\nFormat settings, GOP                     : M=1, N=12\nCodec ID                                 : V_MPEG4/ISO/AVC\nDuration                                 : 2h 1mn\nBit rate                                 : 3 947 Kbps\nWidth                                    : 1 920 pixels\nHeight                                   : 816 pixels\nDisplay aspect ratio                     : 2.40:1\nFrame rate mode                          : Constant\nFrame rate                               : 24.000 fps\nColor space                              : YUV\nChroma subsampling                       : 4:2:0\nBit depth                                : 8 bits\nScan type                                : Progressive\nBits/(Pixel*Frame)                       : 0.105\nStream size                              : 3.35 GiB (95%)\nLanguage                                 : English\nDefault                                  : Yes\nForced                                   : No\n\nAudio\nID                                       : 2\nFormat                                   : AC-3\nFormat/Info                              : Audio Coding 3\nMode extension                           : CM (complete main)\nFormat settings, Endianness              : Big\nCodec ID                                 : A_AC3\nDuration                                 : 2h 1mn\nBit rate mode                            : Constant\nBit rate                                 : 128 Kbps\nChannel count                            : 6 channels\nChannel positions                        : Front: L C R, Side: L R, LFE\nSampling rate                            : 44.1 KHz\nBit depth                                : 16 bits\nCompression mode                         : Lossy\nStream size                              : 111 MiB (3%)\nDefault                                  : Yes\nForced                                   : No\n[/quote][/CENTER]\n\n\n[CENTER][B][COLOR=&quot;brown&quot;][SIZE=6]Screenshots[/SIZE][/COLOR][/B][/CENTER]\n[CENTER]\n[URL=http://imgbox.com/SL6hP5UX][IMG]http://i.imgbox.com/SL6hP5UX.png[/IMG][/URL] [URL=http://imgbox.com/QtDOlCTY][IMG]http://i.imgbox.com/QtDOlCTY.png[/IMG][/URL] [URL=http://imgbox.com/hioaVwGU][IMG]http://i.imgbox.com/hioaVwGU.png[/IMG][/URL] [URL=http://imgbox.com/5bY6bTCB][IMG]http://i.imgbox.com/5bY6bTCB.png[/IMG][/URL] [URL=http://imgbox.com/oFogYzbt][IMG]http://i.imgbox.com/oFogYzbt.png[/IMG][/URL] [URL=http://imgbox.com/cC3FC1aS][IMG]http://i.imgbox.com/cC3FC1aS.png[/IMG][/URL] [URL=http://imgbox.com/eYh1IQyz][IMG]http://i.imgbox.com/eYh1IQyz.png[/IMG][/URL] [URL=http://imgbox.com/KGwKNmHG][IMG]http://i.imgbox.com/KGwKNmHG.png[/IMG][/URL]\n\n[URL=http://imgbox.com/PXgAXIFR][IMG]http://i.imgbox.com/PXgAXIFR.png[/IMG][/URL]\n[/CENTER]\n\n\n[CENTER]==================================\nSAMPLE =-[/b][/SIZE][/COLOR][/URL]\n==================================[/CENTER]\n[CENTER]==================================\n[COLOR=&quot;RED&quot;][SIZE=&quot;4&quot;][b]SLOW SEEDING - PLEASE BE PATIENT[/b][/SIZE][/COLOR]\n==================================[/CENTER]\n\n[CENTER][B]Team MCT -=: MovieClub :=-[/B][/CENTER]\n\n[CENTER][COLOR=&quot;Purple&quot;][SIZE=&quot;3&quot;][b]Don't Forget To Say &quot;Thanks&quot;! And &quot;Comment&quot;! If You Like My Post![/b][/SIZE][/COLOR][/CENTER]\n[CENTER][COLOR=&quot;Green&quot;][SIZE=&quot;3&quot;][b]If You Don't Reply, This Post Will &quot;Die&quot;![/b][/SIZE][/COLOR][/CENTER]\n[CENTER][COLOR=&quot;Brown&quot;][SIZE=&quot;3&quot;][b]Check Sample Before &quot;Commenting&quot;![/b][/SIZE][/COLOR][/CENTER]\n\n[quote=&quot;MovieClub&quot;]Please Seed After downloading...and maintain your Ratio!\nIf Any Mistake, Forgive Me...All Suggestions, Instructions, Orders By Admin ETC, Heartly Accepted...\nIf You Want Any Other, Please PM Me...[/quote]","torrent":{"xt":"urn:btih:38b91afb8eb931a13f1b9de75b57eb9a71a80c04","amp;dn":"The+Expendables+3+%5B2014%5D+-+DVDSCREENER+-+1080p+-+x264+-+AC3+-+eX","amp;tr":["udp%3A%2F%2Ftracker.openbittorrent.com%3A80","udp%3A%2F%2Fopen.demonii.com%3A1337","udp%3A%2F%2Ftracker.coppersurfer.tk%3A6969","udp%3A%2F%2Fexodus.desync.com%3A6969"],"infoHash":"38b91afb8eb931a13f1b9de75b57eb9a71a80c04","infoHashBuffer":{"type":"Buffer","data":[56,185,26,251,142,185,49,161,63,27,157,231,91,87,235,154,113,168,12,4]},"announce":[],"urlList":[]}}